<?xml version="1.0" encoding="UTF-8"?>
<svg id="Layer_1" xmlns="http://www.w3.org/2000/svg" version="1.1" viewBox="0 0 64 64">
  <!-- Generator: Adobe Illustrator 29.6.1, SVG Export Plug-In . SVG Version: 2.1.1 Build 9)  -->
  <defs>
    <style>
      .st0 {
        fill: none;
      }

      .st1 {
        fill: #f97316;
      }

      .st2 {
        fill: #122a39;
      }
    </style>
  </defs>
  <path class="st1" d="M50.7,56.86c-3.23-2.64-7.06-4.32-11.25-4.69v-1.94c5.99-.76,10.57-5.02,12.23-10.75.15-.51.58-1.97.58-2.39v-2.58c3.11,2.23,5.85-2.63,2.76-4.09-1.14-.54-1.67-.27-2.76.18.1-2.61-.05-5.19-.94-7.66,2.02.75,3.69-1.42,2.57-3.28-1.06-1.75-4.11-.99-4.11,1.17,0,.45.44,1.17.41,1.38-.08.5-2.55,2.89-2.44,3.44.78.78,1.4,1.51,1.4,2.68,0,.4-.27,1.04-.1,1.33l2.7,1.8-.35.86c-.82-.26-2.37-1.6-3.01-1.69-.21-.03-1.41.47-1.52.6-.4.47-.21,2.76-.4,3.51.07.37.65.57.94.94,1.65,2.09-.66,4.9-3.01,3.64-2.12-1.14-1.38-4.56,1.13-4.5l.29-3.5c-1.65-.76-2.6-2.52-1.92-4.3l-1.76-1.87c-1.48.25-3.03.33-3.68-1.31-1.35-3.4,3.95-4.85,4.65-1.37.16.79-.38,1.78-.33,1.89.08.18,1.54,1.55,1.72,1.56.54-.47,1.82-.39,2.22-.67.15-.1,2.08-2.75,2.16-2.93.25-.56-.58-1.68-.92-2.2-2.28-3.54-7.87-7.64-12.21-7.64h-2.89v-4.77c.4-.37,1.04-.63,1.41-1.02,11.75.67,22.39,9.35,25.52,20.66,3.09,11.14-.6,22.06-9.11,29.51h0ZM45.97,26.73c-1.6.37-1.56,3.2.44,3.26,2.45.07,2.15-3.85-.44-3.26Z"/>
  <path class="st1" d="M28.51,6.7c.19.2,1.08.72,1.41.78v5c-8.12-.45-16.49,5.4-17.26,13.76-.12.17-1.57.22-2,.35-.93.29-1.76,1.24-2.07,2.15-.41,1.2-.38,6-.24,7.42.23,2.35,1.85,3.83,4.22,3.36-.13,4.62,4.07,8.84,8.29,10.08.41.12,2.63.51,2.67.64l-.15,2.02c-3.77.46-7.58,1.94-10.32,4.6C-5.07,41.37,2.89,11.03,26.29,7.06c.71-.12,1.57.14,2.22-.36h0Z"/>
  <path class="st1" d="M38.78,27.83c4.62-.7,5.32,6.57,1.04,7.14-4.63.62-5.23-6.5-1.04-7.14Z"/>
  <circle class="st1" cx="23.57" cy="31.39" r="3.5"/>
  <g>
    <path class="st0" d="M33.96,41.62c.09-.04.2-.1.31-.17-.12.07-.22.13-.31.17Z"/>
    <path class="st0" d="M29.43,41.86c-.24-.08-.48-.17-.71-.29,0,0,0,0,0,0,0,0,0,0,0,0,.24.11.47.21.71.29Z"/>
    <circle class="st0" cx="23.57" cy="31.39" r="3.5"/>
    <path class="st0" d="M38.78,27.83c-4.19.63-3.58,7.75,1.04,7.14,4.28-.57,3.58-7.84-1.04-7.14Z"/>
    <path class="st0" d="M26.12,40.17c.43-.12.97.24,1.49.64-.52-.4-1.07-.76-1.49-.64Z"/>
    <path class="st0" d="M25.95,42.19c2.56,2.57,8.79,2.54,11.16-.25.04-.05.08-.1.11-.15-.03.05-.07.1-.11.15-2.37,2.78-8.6,2.81-11.16.25Z"/>
    <path class="st2" d="M55.03,30.42c-1.14-.54-1.67-.27-2.76.18.1-2.61-.05-5.19-.94-7.66,2.02.75,3.69-1.42,2.57-3.28-1.06-1.75-4.11-.99-4.11,1.17,0,.45.44,1.17.41,1.38-.08.5-2.55,2.89-2.44,3.44.78.78,1.4,1.51,1.4,2.68,0,.4-.27,1.04-.1,1.33l2.7,1.8-.35.86c-.82-.26-2.37-1.6-3.01-1.69-.22-.03-1.41.47-1.52.6-.4.47-.21,2.76-.4,3.51.07.37.65.57.94.94,1.65,2.09-.66,4.9-3.01,3.64-2.12-1.14-1.38-4.56,1.13-4.5l.29-3.5c-1.65-.76-2.6-2.52-1.92-4.3l-1.76-1.87c-1.48.25-3.03.33-3.68-1.31-1.35-3.4,3.95-4.85,4.65-1.37.16.79-.38,1.78-.33,1.89.08.18,1.54,1.55,1.72,1.56.54-.47,1.82-.39,2.22-.67.15-.1,2.08-2.75,2.16-2.93.25-.56-.58-1.68-.92-2.2-2.27-3.54-7.87-7.64-12.21-7.64h-2.89v-4.77c.4-.37,1.04-.63,1.41-1.02h0c2.68-2.81-.2-7.91-4.17-6.43-2.48.92-3.47,4.47-1.61,6.44.19.2,1.08.72,1.41.78v5c-8.12-.45-16.48,5.4-17.26,13.76-.12.17-1.57.22-2,.35-.93.29-1.76,1.24-2.07,2.15-.41,1.2-.38,6-.24,7.42.23,2.34,1.85,3.83,4.22,3.36-.13,4.62,4.07,8.84,8.29,10.08.41.12,2.63.51,2.67.64l-.15,2.02c-3.77.46-7.58,1.95-10.32,4.6,11.08,9.48,26.76,9.54,37.67,0-3.23-2.64-7.06-4.32-11.25-4.69v-1.94c5.99-.76,10.57-5.02,12.23-10.75.15-.51.58-1.97.58-2.39v-2.58c3.11,2.23,5.85-2.63,2.76-4.09h0ZM34.27,41.45c-.12.07-.22.13-.31.17.09-.04.2-.1.31-.17ZM28.71,41.58c.24.11.47.21.71.29-.24-.08-.48-.17-.71-.29,0,0,0,0,0,0,0,0,0,0,0,0ZM20.07,31.39c0-1.93,1.57-3.5,3.5-3.5s3.5,1.57,3.5,3.5-1.57,3.5-3.5,3.5-3.5-1.57-3.5-3.5ZM27.62,40.81c-.52-.4-1.07-.76-1.49-.64.43-.12.97.24,1.49.64ZM37.11,41.94c-2.37,2.78-8.6,2.81-11.16.25,2.56,2.57,8.79,2.54,11.16-.25.04-.05.08-.1.11-.15-.03.05-.07.1-.11.15ZM39.83,34.97c-4.63.62-5.23-6.5-1.04-7.14,4.62-.7,5.32,6.57,1.04,7.14Z"/>
  </g>
  <path class="st2" d="M45.97,26.73c2.58-.59,2.88,3.34.44,3.26-2-.06-2.03-2.9-.44-3.26Z"/>
</svg>